# AST/ASF file generated using VICON BodyLanguage
# -----------------------------------------------
:version 1.10
:name VICON
:units
  mass 1.0
  length 0.45
  angle deg
:documentation
   .ast/.asf automatically generated from VICON data using
   VICON BodyBuilder and BodyLanguage model FoxedUp or BRILLIANT.MOD
:root
   order TX TY TZ RX RY RZ
   axis XYZ
   position 0 0 0  
   orientation 0 0 0 
:bonedata
  begin
     id 1 
     name lhipjoint
     direction 0.623415 -0.642378 0.445763 
     length 2.49859 
     axis 0 0 0  XYZ
  end
  begin
     id 2 
     name lfemur
     direction 0.34202 -0.939693 0  
     length 6.69689  
     axis 0 0 20  XYZ
    dof rx ry rz
    limits (-160.0 20.0)
           (-70.0 70.0)
           (-60.0 70.0)
  end
  begin
     id 3 
     name ltibia
     direction 0.34202 -0.939693 0   
     length 7.37574   
     axis 0 0 20   XYZ
    dof rx
    limits (-10.0 170.0)
  end
  begin
     id 4 
     name lfoot
     direction 0.084323 -0.231675 0.969132   
     length 2.09111   
     axis -90 7.62852e-016 20   XYZ
    dof rx rz
    limits (-45.0 90.0)
           (-70.0 20.0)
  end
  begin
     id 5 
     name ltoes
     direction 1.5357e-011 -4.21957e-011 1   
     length 1.04989   
     axis -90 7.62852e-016 20   XYZ
    dof rx
    limits (-90.0 20.0)
  end
  begin
     id 6 
     name rhipjoint
     direction -0.605402 -0.653903 0.45376   
     length 2.45455  
     axis 0 0 0  XYZ 
  end
  begin
     id 7 
     name rfemur
     direction -0.34202 -0.939693 0   
     length 6.64523   
     axis 0 0 -20   XYZ
    dof rx ry rz
    limits (-160.0 20.0)
           (-70.0 70.0)
           (-70.0 60.0)
  end
  begin
     id 8 
     name rtibia
     direction -0.34202 -0.939693 0   
     length 7.3339   
     axis 0 0 -20   XYZ
    dof rx
    limits (-10.0 170.0)
 end
 begin
     id 9 
     name rfoot
     direction -0.120854 -0.332043 0.93549   
     length 2.23135  
     axis -90 -7.62852e-016 -20   XYZ
    dof rx rz
    limits (-45.0 90.0)
           (-20.0 70.0)
  end
  begin
     id 10 
     name rtoes
     direction -1.53563e-011 -4.21914e-011 1   
     length 1.10614   
     axis -90 -7.62852e-016 -20   XYZ
    dof rx
    limits (-90.0 20.0)
  end
  begin
     id 11 
     name lowerback
     direction 0.0319682 0.998615 -0.0417941   
     length 2.02718   
     axis 0 0 0   XYZ
    dof rx ry rz
    limits (-20.0 45.0)
           (-30.0 30.0)
           (-30.0 30.0)
  end
  begin
     id 12 
     name upperback
     direction 7.63181e-005 0.995808 0.0914691   
     length 1.97539   
     axis 0 0 0   XYZ
    dof rx ry rz
    limits (-20.0 45.0)
           (-30.0 30.0)
           (-30.0 30.0)
  end
  begin
     id 13 
     name thorax
     direction -0.016423 0.993627 0.111514   
     length 2.00349   
     axis 0 0 0   XYZ
    dof rx ry rz
    limits (-20.0 45.0)
           (-30.0 30.0)
           (-30.0 30.0)
  end
  begin
     id 14 
     name lowerneck
     direction -0.174763 0.981668 -0.0760716   
     length 1.71436   
     axis 0 0 0   XYZ
    dof rx ry rz
    limits (-20.0 45.0)
           (-30.0 30.0)
           (-30.0 30.0)
  end
  begin
     id 15 
     name upperneck
     direction 0.345458 0.934587 -0.0848868   
     length 1.72805   
     axis 0 0 0   XYZ
    dof rx ry rz
    limits (-20.0 45.0)
           (-30.0 30.0)
           (-30.0 30.0)
  end
  begin
     id 16
     name head
     direction 0.13001 0.989848 -0.0574291  
     length 1.767  
     axis 0 0 0   XYZ
    dof rx ry rz
    limits (-20.0 45.0)
           (-30.0 30.0)
           (-30.0 30.0)
  end
  begin
     id 17 
     name lclavicle
     direction 0.952951 0.290122 0.0878234  
     length 3.54654  
     axis 0 0 0   XYZ
    dof ry rz
    limits (-20.0 10.0)
           (0.0 20.0)
  end
  begin
     id 18 
     name lhumerus
     direction 1 -4.48957e-011 -4.56525e-028   
     length 5.19807   
     axis 180 -30 -90   XYZ
    dof rx ry rz
    limits (-60.0 90.0)
           (-90.0 90.0)
           (-90.0 90.0)
  end
  begin
     id 19
     name lradius
     direction 1 -4.48979e-011 -2.0317e-027   
     length 3.0937   
     axis 180 -30 -90   XYZ
    dof rx
    limits (-10.0 170.0)
  end
  begin
     id 20
     name lwrist
     direction 1 -4.48953e-011 -3.05809e-027   
     length 1.54685   
     axis 8.48514e-016 90 90   XYZ
    dof ry
    limits (-180.0 0.0)
 end
  begin
     id 21 
     name lhand
     direction 1 -4.48952e-011 -6.11639e-027   
     length 0.672632   
     axis 3.9013e-015 90 90   XYZ
    dof rx rz
    limits (-90.0 90.0)
           (-45.0 45.0)
  end
  begin
     id 22 
     name lfingers
     direction 1 -4.48925e-011 -1.22426e-026   
     length 0.542293   
     axis 7.80276e-015 90 90   XYZ
    dof rx
    limits (0.0 90.0)
  end
  begin
     id 23
     name lthumb
     direction 0.707107 -6.3486e-011 0.707107   
     length 0.778628   
     axis -90 45 5.37419e-014   XYZ
    dof rx rz
    limits (-45.0 45.0)
           (-45.0 45.0)
  end
  begin
     id 24 
     name rclavicle
     direction -0.960732 0.273675 -0.0457849   
     length 3.52079  
     axis 0 0 0   XYZ 
    dof ry rz
    limits (-10.0 20.0)
           (-20.0 0.0)
  end
  begin
     id 25 
     name rhumerus
     direction -1 -4.48976e-011 -1.63613e-027  
     length 5.45222   
     axis 180 30 90   XYZ
    dof rx ry rz
    limits (-90.0 60.0)
           (-90.0 90.0)
           (-90.0 90.0)
  end
  begin
     id 26 
     name rradius
     direction -1 -4.48957e-011 -7.00033e-028   
     length 3.01284   
     axis 180 30 90   XYZ
    dof rx
    limits (-10.0 170.0)
  end
  begin
     id 27 
     name rwrist
     direction -1 -4.48983e-011 -3.05543e-027   
     length 1.50642   
     axis 8.48514e-016 -90 -90   XYZ
    dof ry
    limits (-180.0 0.0)
  end
  begin
     id 28
     name rhand
     direction -1 -4.48984e-011 -6.11072e-027   
     length 0.622296   
     axis 3.9013e-015 -90 -90   XYZ
    dof rx rz
    limits (-90.0 90.0)
           (-45.0 45.0)
  end
  begin
     id 29
     name rfingers
     direction -1 -4.48865e-011 -1.22637e-026   
     length 0.501711   
     axis 7.80276e-015 -90 -90   XYZ
    dof rx
    limits (0.0 90.0)
  end
  begin
     id 30
     name rthumb
     direction -0.707107 -6.34932e-011 0.707107   
     length 0.72036   
     axis -90 -45 -5.37419e-014   XYZ
    dof rx rz
    limits (-45.0 45.0)
           (-45.0 45.0)
  end
:hierarchy
  begin
    root lhipjoint rhipjoint lowerback
    lhipjoint lfemur
    lfemur ltibia
    ltibia lfoot
    lfoot ltoes
    rhipjoint rfemur
    rfemur rtibia
    rtibia rfoot
    rfoot rtoes
    lowerback upperback
    upperback thorax
    thorax lowerneck lclavicle rclavicle
    lowerneck upperneck
    upperneck head
    lclavicle lhumerus
    lhumerus lradius
    lradius lwrist
    lwrist lhand lthumb
    lhand lfingers
    rclavicle rhumerus
    rhumerus rradius
    rradius rwrist
    rwrist rhand rthumb
    rhand rfingers
  end

#!OML:ASF H:\Not Pregnant\Project 1\Capture day 1\Session 1\non-pregnant.ASF
:FULLY-SPECIFIED
:DEGREES
634
root 19.0351 16.4391 -18.7064 -171.852 -19.3582 -177.282
lowerback -1.01554 3.78357 5.25318
upperback -5.19947 4.88615 -1.63834
thorax -4.23739 2.1 -4.73536
lowerneck 0.0822881 -2.263 -30.4386
upperneck 15.7132 -7.6253 30.0709
head 6.85513 -4.6399 16.1594
rclavicle -1.98163e-014 -8.74653e-015
rhumerus -38.9175 -12.3066 -75.1279
rradius 26.1879
rwrist 24.6273
rhand -6.9728 -0.68383
rfingers 7.12502
rthumb 18.897 -29.7859
lclavicle -1.98163e-014 -8.74653e-015
lhumerus -51.2068 3.39382 75.2748
lradius 32.0195
lwrist 37.5148
lhand -14.48 -7.05297
lfingers 7.12502
lthumb 11.6662 22.6022
rfemur -33.4691 4.96556 21.3813
rtibia 31.5866
rfoot -12.0994 15.4674
rtoes -13.1058
lfemur -8.38863 -5.16172 -21.0682
ltibia 45.0552
lfoot 25.7247 -24.6967
ltoes 22.4718
635
root 19.0159 16.4439 -18.8151 -171.999 -19.7948 -177.171
lowerback -0.809416 3.82184 5.29613
upperback -5.19032 4.95649 -1.59999
thorax -4.33651 2.13316 -4.73504
lowerneck -0.0185223 -2.28843 -30.4666
upperneck 15.739 -7.635 30.1232
head 6.89108 -4.63556 16.1948
rclavicle -2.37548e-014 1.19271e-015
rhumerus -38.8686 -12.3517 -74.9422
rradius 26.1299
rwrist 24.8581
rhand -6.89757 -0.688861
rfingers 7.12502
rthumb 18.9693 -29.7839
lclavicle -2.37548e-014 1.19271e-015
lhumerus -51.4825 3.19386 75.39
lradius 32.6593
lwrist 38.0315
lhand -14.0542 -6.91451
lfingers 7.12502
lthumb 12.0768 22.717
rfemur -32.8963 4.5378 21.682
rtibia 31.6972
rfoot -12.705 15.3208
rtoes -12.9462
lfemur -9.32421 -4.59694 -20.704
ltibia 46.8013
lfoot 27.671 -24.0359
ltoes 22.5157
636
root 18.9967 16.4497 -18.9227 -172.164 -20.2638 -177.034
lowerback -0.582075 3.85339 5.36411
upperback -5.17877 5.02056 -1.55448
thorax -4.44472 2.16211 -4.74305
lowerneck -0.100333 -2.31147 -30.4853
upperneck 15.7347 -7.63646 30.166
head 6.91039 -4.62602 16.2211
rclavicle -4.67641e-014 -2.06736e-014
rhumerus -38.8297 -12.3992 -74.7563
rradius 26.1013
rwrist 25.0327
rhand -6.85422 -0.696536
rfingers 7.12502
rthumb 19.011 -29.7875
lclavicle -4.67641e-014 -2.06736e-014
lhumerus -51.7052 3.00278 75.5151
lradius 33.2611
lwrist 38.5066
lhand -13.6677 -6.8119
lfingers 7.12502
lthumb 12.4495 22.7973
rfemur -32.2845 4.10854 21.991
rtibia 31.7431
rfoot -13.2605 15.1544
rtoes -12.8001
lfemur -10.3055 -4.08528 -20.3175
ltibia 48.5744
lfoot 29.2094 -23.4577
ltoes 22.1112
637
root 18.9769 16.4562 -19.0293 -172.359 -20.7554 -176.855
lowerback -0.327384 3.8875 5.48373
upperback -5.16527 5.09212 -1.50252
thorax -4.56221 2.19257 -4.7756
lowerneck -0.147874 -2.32909 -30.4878
upperneck 15.6981 -7.62996 30.1964
head 6.90891 -4.61228 16.235
rclavicle 4.39563e-014 1.59028e-015
rhumerus -38.807 -12.4528 -74.5705
rradius 26.0972
rwrist 25.1384
rhand -6.85823 -0.723809
rfingers 7.12502
rthumb 19.0072 -29.8151
lclavicle 4.39563e-014 1.59028e-015
lhumerus -51.8639 2.82765 75.6423
lradius 33.8048
lwrist 38.9366
lhand -13.3453 -6.76372
lfingers 7.12502
lthumb 12.7603 22.8263
rfemur -31.6259 3.68907 22.3243
rtibia 31.7223
rfoot -13.766 14.9814
rtoes -12.6627
lfemur -11.3177 -3.62118 -19.8981
ltibia 50.3681
lfoot 30.1983 -22.9847
ltoes 21.0631
638
root 18.9558 16.4624 -19.1334 -172.59 -21.2592 -176.617
lowerback -0.0435279 3.91845 5.68194
upperback -5.14715 5.16523 -1.4372
thorax -4.68637 2.22062 -4.84047
lowerneck -0.178827 -2.33972 -30.4847
upperneck 15.6388 -7.60895 30.2159
head 6.89117 -4.59071 16.2408
rclavicle -2.16924e-014 8.34896e-015
rhumerus -38.7799 -12.5014 -74.3899
rradius 26.105
rwrist 25.2044
rhand -6.9252 -0.761731
rfingers 7.12502
rthumb 18.9428 -29.8593
lclavicle -2.16924e-014 8.34896e-015
lhumerus -51.9636 2.67527 75.7807
lradius 34.3026
lwrist 39.3354
lhand -13.0964 -6.75619
lfingers 7.12502
lthumb 13.0003 22.8188
rfemur -30.9311 3.27473 22.6968
rtibia 31.6377
rfoot -14.2233 14.8256
rtoes -12.5443
lfemur -12.3674 -3.1841 -19.4403
ltibia 52.1783
lfoot 30.55 -22.6733
ltoes 19.4742
639
root 18.9342 16.4677 -19.2335 -172.851 -21.7824 -176.3
lowerback 0.258548 3.9502 5.97237
upperback -5.128 5.2454 -1.35953
thorax -4.81276 2.2481 -4.9457
lowerneck -0.170025 -2.34409 -30.4624
upperneck 15.5386 -7.58016 30.2277
head 6.84905 -4.56507 16.2352
rclavicle 1.04536e-013 -3.18055e-015
rhumerus -38.7327 -12.5505 -74.2157
rradius 26.1108
rwrist 25.2084
rhand -7.06361 -0.814454
rfingers 7.12502
rthumb 18.8096 -29.925
lclavicle 1.04536e-013 -3.18055e-015
lhumerus -51.9953 2.51764 75.9387
lradius 34.7547
lwrist 39.6803
lhand -12.8965 -6.79314
lfingers 7.12502
lthumb 13.1929 22.7694
rfemur -30.2248 2.8967 23.1205
rtibia 31.497
rfoot -14.6199 14.65
rtoes -12.4528
lfemur -13.4853 -2.75683 -18.927
ltibia 54.0056
lfoot 30.1801 -22.585
ltoes 17.3188
640
root 18.9116 16.4714 -19.3304 -173.141 -22.3121 -175.901
lowerback 0.570565 3.98338 6.36166
upperback -5.10698 5.33405 -1.2666
thorax -4.93512 2.27545 -5.09122
lowerneck -0.147097 -2.34572 -30.4371
upperneck 15.4197 -7.54583 30.2355
head 6.7962 -4.53653 16.2255
rclavicle 3.93345e-014 1.23246e-014
rhumerus -38.6674 -12.6001 -74.0469
rradius 26.1147
rwrist 25.1773
rhand -7.24962 -0.88216
rfingers 7.12502
rthumb 18.6307 -30.01
lclavicle 3.93345e-014 1.23246e-014
lhumerus -51.95 2.39471 76.0909
lradius 35.1326
lwrist 39.9371
lhand -12.7505 -6.87747
lfingers 7.12502
lthumb 13.3337 22.6759
rfemur -29.5171 2.55017 23.6041
rtibia 31.3115
rfoot -14.9701 14.4673
rtoes -12.3765
lfemur -14.671 -2.31244 -18.361
ltibia 55.8395
lfoot 29.101 -22.7209
ltoes 14.9393
641
root 18.8883 16.4731 -19.4229 -173.451 -22.8442 -175.408
lowerback 0.883075 4.0132 6.85485
upperback -5.0894 5.42493 -1.15409
thorax -5.05428 2.29872 -5.27457
lowerneck -0.131616 -2.34819 -30.4261
upperneck 15.303 -7.51126 30.249
head 6.74643 -4.50827 16.2223
rclavicle 3.72286e-014 1.07344e-014
rhumerus -38.5789 -12.658 -73.8782
rradius 26.1135
rwrist 25.1609
rhand -7.46344 -0.953487
rfingers 7.12502
rthumb 18.4251 -30.1009
lclavicle 3.72286e-014 1.07344e-014
lhumerus -51.8542 2.26817 76.2653
lradius 35.4777
lwrist 40.1325
lhand -12.658 -6.99992
lfingers 7.12502
lthumb 13.4229 22.5476
rfemur -28.8356 2.247 24.1587
rtibia 31.0967
rfoot -15.2767 14.2637
rtoes -12.3397
lfemur -15.948 -1.82953 -17.7366
ltibia 57.6651
lfoot 27.3768 -23.0433
ltoes 12.4636
642
root 18.8646 16.4728 -19.5116 -173.763 -23.3722 -174.844
lowerback 1.17752 4.05122 7.42384
upperback -5.07682 5.53105 -1.03387
thorax -5.16037 2.32546 -5.49122
lowerneck -0.0985576 -2.354 -30.4141
upperneck 15.1689 -7.48582 30.271
head 6.69168 -4.48531 16.2213
rclavicle -2.58172e-014 -1.11319e-014
rhumerus -38.4669 -12.7469 -73.7013
rradius 26.1013
rwrist 25.1658
rhand -7.68564 -1.03727
rfingers 7.12502
rthumb 18.2113 -30.2048
lclavicle -2.58172e-014 -1.11319e-014
lhumerus -51.6832 2.14527 76.4418
lradius 35.7564
lwrist 40.2183
lhand -12.6138 -7.14078
lfingers 7.12502
lthumb 13.4655 22.4039
rfemur -28.2039 1.99991 24.7631
rtibia 30.8743
rfoot -15.5504 14.0149
rtoes -12.3538
lfemur -17.3252 -1.29845 -17.0815
ltibia 59.4536
lfoot 25.158 -23.4451
ltoes 10.0081
643
root 18.8405 16.4708 -19.5975 -174.06 -23.9017 -174.246
lowerback 1.44989 4.08969 8.03144
upperback -5.07353 5.63998 -0.911956
thorax -5.25954 2.35043 -5.72623
lowerneck -0.0598794 -2.35986 -30.4018
upperneck 15.0327 -7.46149 30.2901
head 6.63557 -4.46341 16.2186
rclavicle -1.79714e-014 -1.98785e-015
rhumerus -38.3431 -12.8543 -73.5202
rradius 26.0831
rwrist 25.1985
rhand -7.93379 -1.12298
rfingers 7.12502
rthumb 17.9725 -30.3126
lclavicle -1.79714e-014 -1.98785e-015
lhumerus -51.4611 2.03496 76.6238
lradius 35.9854
lwrist 40.2513
lhand -12.6316 -7.32136
lfingers 7.12502
lthumb 13.4483 22.2245
rfemur -27.6336 1.78072 25.3856
rtibia 30.6702
rfoot -15.8065 13.7418
rtoes -12.3607
lfemur -18.7866 -0.735126 -16.4385
ltibia 61.166
lfoot 22.5641 -23.7875
ltoes 7.44077
644
root 18.8156 16.4675 -19.6814 -174.322 -24.4359 -173.666
lowerback 1.68497 4.12599 8.6287
upperback -5.07634 5.74398 -0.80094
thorax -5.3435 2.37241 -5.96385
lowerneck -0.0165527 -2.36294 -30.3891
upperneck 14.8968 -7.4354 30.3101
head 6.57805 -4.44126 16.2165
rclavicle 2.85132e-014 1.55052e-014
rhumerus -38.2036 -12.9849 -73.3356
rradius 26.061
rwrist 25.2665
rhand -8.18572 -1.21164
rfingers 7.12502
rthumb 17.7301 -30.4233
lclavicle 2.85132e-014 1.55052e-014
lhumerus -51.1958 1.93027 76.8144
lradius 36.1812
lwrist 40.2421
lhand -12.7047 -7.5135
lfingers 7.12502
lthumb 13.3778 22.037
rfemur -27.1404 1.57071 25.9799
rtibia 30.5163
rfoot -16.0777 13.439
rtoes -12.4397
lfemur -20.3163 -0.159716 -15.8663
ltibia 62.7622
lfoot 19.7377 -23.9492
ltoes 4.80361
